<svg width="14" height="14" viewBox="0 0 14 14" fill="none" xmlns="http://www.w3.org/2000/svg">
    <path d="M9.58747 2.63751H1.72498C0.762475 2.63751 -0.0250244 3.42501 -0.0250244 4.38751V12.25C-0.0250244 13.2125 0.762475 14 1.72498 14H9.58747C10.55 14 11.3375 13.2125 11.3375 12.25V4.38751C11.325 3.41251 10.55 2.63751 9.58747 2.63751ZM10.4625 12.2375C10.4625 12.725 10.075 13.1125 9.58747 13.1125H1.72498C1.23748 13.1125 0.849976 12.725 0.849976 12.2375V4.37501C0.849976 3.88751 1.23748 3.50001 1.72498 3.50001H9.58747C10.075 3.50001 10.4625 3.88751 10.4625 4.37501V12.2375Z"
          fill="#3F7EFD"/>
    <path d="M2.59998 5.75H8.71248V6.625H2.59998V5.75ZM2.59998 7.875H8.71248V8.75H2.59998V7.875ZM2.59998 9.9875H6.08748V10.8625H2.59998V9.9875Z"
          fill="#3F7EFD"/>
    <path d="M12.2 0.0125122H4.33752C3.37502 0.0125122 2.58752 0.800012 2.58752 1.76251H3.46252C3.46252 1.27501 3.85002 0.887512 4.33752 0.887512H12.2C12.6875 0.887512 13.075 1.27501 13.075 1.76251V9.62501C13.075 10.1125 12.6875 10.5 12.2 10.5V11.375C13.1625 11.375 13.95 10.5875 13.95 9.62501V1.76251C13.95 0.787512 13.1625 0.0125122 12.2 0.0125122Z"
          fill="#3F7EFD"/>
</svg>
